<svg width="19" height="22" viewBox="0 0 19 22" fill="none" xmlns="http://www.w3.org/2000/svg">
<path d="M0 4.61035C0 2.0774 2.06487 0 4.61035 0H14.25C16.7962 0 18.8582 2.07696 18.8701 4.60645V18.7002C18.8701 19.7688 18.483 20.7144 17.6582 21.2002C16.8331 21.6862 15.8192 21.5647 14.8857 21.0449L10.0059 18.3359L9.99902 18.332C9.88544 18.2675 9.68432 18.2129 9.43848 18.2129C9.19338 18.2129 8.98693 18.2671 8.86523 18.335L8.86426 18.3359L3.98438 21.0459L3.98145 21.0469C3.04722 21.5612 2.03484 21.677 1.21191 21.1924C0.388425 20.7074 4.7257e-05 19.7658 0 18.7002V4.61035ZM1.5 18.7002C1.50005 19.4342 1.75627 19.7729 1.97266 19.9004C2.18962 20.0282 2.61237 20.0887 3.25781 19.7334L8.13574 17.0244C8.53371 16.8028 9.00665 16.7129 9.43848 16.7129C9.86744 16.7129 10.3384 16.8019 10.7334 17.0244H10.7344L15.6143 19.7344H15.6152C16.2615 20.0943 16.6817 20.0336 16.8965 19.9072C17.1116 19.7805 17.3701 19.4414 17.3701 18.7002V4.61328L17.3652 4.4541C17.2743 2.81671 15.9103 1.5 14.25 1.5H4.61035C2.89583 1.5 1.5 2.9033 1.5 4.61035V18.7002Z" fill="white"/>
</svg>
