<svg width="24" height="24" viewBox="0 0 24 24" fill="none" xmlns="http://www.w3.org/2000/svg">
<path d="M22 21.25C22.4142 21.25 22.75 21.5858 22.75 22C22.75 22.4142 22.4142 22.75 22 22.75H2C1.58579 22.75 1.25 22.4142 1.25 22C1.25 21.5858 1.58579 21.25 2 21.25H22Z" fill="white"/>
<path d="M13.5 4C13.5 3.53352 13.4016 3.22464 13.2637 3.04688C13.1524 2.90364 12.9429 2.75004 12.4502 2.75H11.5498C11.0571 2.75004 10.8476 2.90364 10.7363 3.04688C10.5984 3.22464 10.5 3.53352 10.5 4V21.25H13.5V4ZM15 22C15 22.4142 14.6642 22.75 14.25 22.75H9.75C9.33579 22.75 9 22.4142 9 22V4C9 3.3666 9.1264 2.67511 9.55078 2.12793C10.002 1.5463 10.693 1.25005 11.5498 1.25H12.4502C13.307 1.25005 13.998 1.5463 14.4492 2.12793C14.8736 2.67511 15 3.3666 15 4V22Z" fill="white"/>
<path d="M6.25 10C6.25 9.51967 6.15858 9.19694 6.03223 9.01367C5.93848 8.87774 5.78356 8.75009 5.40039 8.75H4.59961C4.21644 8.75009 4.06152 8.87774 3.96777 9.01367C3.84142 9.19694 3.75 9.51967 3.75 10V21.25H6.25V10ZM7.75 22C7.75 22.4142 7.41421 22.75 7 22.75H3C2.58579 22.75 2.25 22.4142 2.25 22V10C2.25 9.38054 2.359 8.7038 2.73242 8.16211C3.13858 7.57318 3.78325 7.2501 4.59961 7.25H5.40039C6.21675 7.2501 6.86142 7.57318 7.26758 8.16211C7.641 8.7038 7.75 9.38054 7.75 10V22Z" fill="white"/>
<path d="M20.25 15C20.25 14.5197 20.1586 14.1969 20.0322 14.0137C19.9385 13.8777 19.7836 13.7501 19.4004 13.75H18.5996C18.2164 13.7501 18.0615 13.8777 17.9678 14.0137C17.8414 14.1969 17.75 14.5197 17.75 15V21.25H20.25V15ZM21.75 22C21.75 22.4142 21.4142 22.75 21 22.75H17C16.5858 22.75 16.25 22.4142 16.25 22V15C16.25 14.3805 16.359 13.7038 16.7324 13.1621C17.1386 12.5732 17.7832 12.2501 18.5996 12.25H19.4004C20.2168 12.2501 20.8614 12.5732 21.2676 13.1621C21.641 13.7038 21.75 14.3805 21.75 15V22Z" fill="white"/>
</svg>
