<svg width="24" height="24" viewBox="0 0 24 24" fill="none" xmlns="http://www.w3.org/2000/svg">
<path d="M13.5504 19.0004V14.6996C13.5504 14.1845 13.6764 13.6353 13.8844 13.1449C14.0911 12.6576 14.403 12.1711 14.8199 11.8236L19.0768 8.06091C19.2478 7.88712 19.4483 7.5972 19.6051 7.25232C19.7651 6.90018 19.8501 6.55863 19.8502 6.30017V4.09998C19.8502 3.41425 19.2859 2.85008 18.6002 2.84998H5.39999C4.73808 2.84998 4.15018 3.38985 4.14999 4.19958V6.50037C4.15009 6.65718 4.20959 6.92372 4.34726 7.23083C4.44841 7.45641 4.57345 7.66335 4.70175 7.82458L4.83066 7.97009L4.84335 7.98376L8.64413 11.9838L8.68613 12.0316C8.93965 12.3486 9.17389 12.7657 9.34628 13.1967C9.51709 13.6237 9.64999 14.1219 9.64999 14.6V19.8998C9.64999 20.8675 10.765 21.4747 11.6031 20.9623L12.9947 20.0687L13.0143 20.057C13.1052 20.0024 13.2474 19.8554 13.3717 19.6166C13.4935 19.3824 13.5503 19.1512 13.5504 19.0004ZM21.3502 6.30017C21.3501 6.8415 21.1851 7.39979 20.9703 7.87244C20.7545 8.34718 20.4576 8.80305 20.1305 9.13025C20.1196 9.14114 20.1078 9.1513 20.0963 9.1615L15.7965 12.9623C15.7911 12.967 15.7854 12.9714 15.7799 12.976C15.5968 13.1285 15.4085 13.3932 15.2652 13.7308C15.1235 14.065 15.0505 14.4151 15.0504 14.6996V19.0004C15.0503 19.4494 14.9058 19.9185 14.7027 20.309C14.5052 20.6886 14.2034 21.0832 13.8043 21.3295L13.8053 21.3304L12.4059 22.2308C12.4017 22.2335 12.3973 22.2361 12.3932 22.2386C10.6316 23.3227 8.14999 22.1308 8.14999 19.8998V14.6C8.14999 14.3781 8.08286 14.0762 7.9537 13.7533C7.83024 13.4447 7.67072 13.1699 7.52792 12.9867L3.75644 9.01697V9.01599C3.4332 8.68836 3.16559 8.26231 2.97812 7.84412C2.79099 7.42664 2.65008 6.94345 2.64999 6.50037V4.19958C2.65019 2.60972 3.86214 1.34998 5.39999 1.34998H18.6002C20.1143 1.35008 21.3502 2.58583 21.3502 4.09998V6.30017Z" fill="white"/>
<path d="M10.2939 1.70251C10.5133 1.35146 10.9759 1.24416 11.3271 1.46325C11.6785 1.68255 11.7857 2.14603 11.5664 2.49743L6.63672 10.3968C6.41742 10.7483 5.95394 10.8554 5.60254 10.6361C5.25148 10.4168 5.14422 9.95416 5.36328 9.6029L10.2939 1.70251Z" fill="white"/>
</svg>
