<svg width="24" height="24" viewBox="0 0 24 24" fill="none" xmlns="http://www.w3.org/2000/svg">
<path d="M11.25 18V15C11.25 14.5858 11.5858 14.25 12 14.25C12.4142 14.25 12.75 14.5858 12.75 15V18C12.75 18.4142 12.4142 18.75 12 18.75C11.5858 18.75 11.25 18.4142 11.25 18Z" fill="white"/>
<path d="M9.60033 2.23451C10.936 1.16348 13.0572 1.16588 14.4001 2.24525H14.3992L21.3279 7.78431L21.3308 7.78627C21.8442 8.19984 22.229 8.80562 22.4646 9.42299C22.7001 10.0405 22.817 10.7489 22.7107 11.4005L22.7097 11.4035L21.3796 19.3634V19.3654C21.0785 21.1345 19.3971 22.5595 17.6003 22.5597H6.40013C4.59408 22.5597 2.92199 21.1458 2.62083 19.3654L2.61986 19.3634L1.28978 11.4035L1.29076 11.4025C1.17884 10.7496 1.2924 10.0408 1.52806 9.42299C1.76424 8.80393 2.15237 8.19771 2.67161 7.78431L9.60033 2.23451ZM13.4597 3.4142C12.6626 2.77393 11.323 2.77656 10.5388 3.40541L3.60911 8.95521L3.60716 8.95716C3.34731 9.16372 3.09548 9.52196 2.92943 9.95716C2.78415 10.338 2.72693 10.7176 2.75267 11.0245L2.76927 11.1515L2.77025 11.1564H2.76927L4.09935 19.1154L4.14329 19.3117C4.40997 20.2817 5.39354 21.0597 6.40013 21.0597H17.6003C18.6626 21.0595 19.7202 20.166 19.9001 19.1163L21.2302 11.1564C21.283 10.8286 21.2296 10.3932 21.0632 9.95716C20.8968 9.52091 20.647 9.16286 20.3913 8.95619L13.4617 3.41615L13.4597 3.4142Z" fill="white"/>
</svg>
