<svg width="24" height="24" viewBox="0 0 24 24" fill="none" xmlns="http://www.w3.org/2000/svg">
<path d="M18.25 9C18.25 5.54421 15.4558 2.75 12 2.75C8.54421 2.75 5.75 5.54421 5.75 9C5.75 10.297 6.13345 11.4816 6.79199 12.4707L6.97949 12.7344C7.88562 13.9398 9.2058 14.8036 10.7285 15.1104L11.0586 15.168L11.0801 15.1719C11.3753 15.224 11.6818 15.25 12 15.25C12.3182 15.25 12.6247 15.224 12.9199 15.1719L12.9414 15.168C14.7137 14.9097 16.2412 13.9029 17.208 12.4707C17.8666 11.4816 18.25 10.297 18.25 9ZM19.75 9C19.75 10.6015 19.2741 12.0755 18.4541 13.3057L18.4512 13.3096C17.258 15.0771 15.3657 16.3306 13.1582 16.6523L13.1572 16.6514C12.7797 16.7166 12.3939 16.75 12 16.75C11.6058 16.75 11.2196 16.7167 10.8418 16.6514C8.63439 16.3296 6.74197 15.0771 5.54883 13.3096L5.5459 13.3057C4.72588 12.0755 4.25 10.6015 4.25 9C4.25 4.71579 7.71579 1.25 12 1.25C16.2842 1.25 19.75 4.71579 19.75 9Z" fill="white"/>
<path d="M17.7587 12.1539C17.9815 12.1326 18.202 12.2115 18.3603 12.3697L22.2558 16.2652L22.3427 16.357C23.1773 17.2993 22.7329 18.7966 21.5439 19.1666L21.4228 19.1998L19.7763 19.5875L19.7773 19.5885C19.6659 19.6156 19.6076 19.6894 19.5927 19.7584C19.5916 19.7635 19.591 19.769 19.5898 19.774L19.2392 21.2428L19.2401 21.2438C18.9075 22.6432 17.1302 23.0586 16.204 21.9713V21.9723L11.9999 17.1422L7.80265 21.9723L7.80362 21.9732C6.90843 23.0368 5.2047 22.6811 4.79581 21.3824L4.76066 21.2535L4.41105 19.7877L4.38273 19.7164C4.34656 19.6536 4.28933 19.6137 4.23722 19.6022L4.22745 19.6002L2.57706 19.2096C1.24857 18.8948 0.77302 17.2372 1.74015 16.2701L5.63956 12.3697C5.79791 12.2114 6.01919 12.1325 6.2421 12.1539C6.46482 12.1754 6.66669 12.2946 6.79191 12.4801C7.69826 13.8228 9.09679 14.792 10.7284 15.1207L11.0585 15.1783L11.08 15.1813C11.3427 15.2276 11.6146 15.2522 11.8954 15.2574C11.9297 15.2526 11.9648 15.2496 11.9999 15.2496C12.0348 15.2496 12.0693 15.2527 12.1034 15.2574C12.3847 15.2523 12.6568 15.2277 12.9198 15.1813L12.9423 15.1783C14.7146 14.9199 16.2412 13.9123 17.2079 12.4801L17.2587 12.4137C17.3843 12.2661 17.5637 12.1727 17.7587 12.1539ZM17.9042 14.0348C16.7919 15.333 15.2635 16.2607 13.5165 16.6002L17.3359 20.9879L17.3437 20.9967V20.9977C17.4796 21.159 17.7335 21.0926 17.7802 20.8961L18.1308 19.4264C18.2804 18.7633 18.7989 18.2832 19.4228 18.1314L19.4276 18.1305L21.0771 17.7398C21.2765 17.6926 21.323 17.4521 21.205 17.3356L17.9042 14.0348ZM2.80069 17.3307C2.66786 17.4635 2.73136 17.7053 2.92277 17.7506L4.57218 18.1402H4.5712C5.17685 18.2781 5.65182 18.7365 5.83585 19.315L5.86905 19.4332L5.87003 19.4361L6.21964 20.9059V20.9068C6.26639 21.1032 6.52026 21.1688 6.65616 21.0074L6.66398 20.9977L10.4843 16.6002C8.7367 16.2607 7.20814 15.3326 6.09562 14.0338L2.80069 17.3307Z" fill="white"/>
<path d="M12.0039 4.75C12.6302 4.75009 13.0391 5.22069 13.251 5.64453L13.8174 6.77734L14.8389 6.94922C15.3135 7.026 15.8614 7.28521 16.0479 7.87012C16.2334 8.45268 15.9404 8.98049 15.6006 9.32031L14.8115 10.1084L15.0401 11.0889L15.0762 11.2744C15.1472 11.7297 15.1067 12.3189 14.6153 12.6797C14.0533 13.092 13.3845 12.8521 12.9688 12.6045V12.6055L12.0196 12.0449L11.0713 12.6055L11.0684 12.6074C10.6547 12.8487 9.98747 13.0844 9.42776 12.6777C8.86262 12.2669 8.89044 11.5561 9.00002 11.0889L9.22756 10.1084L8.43948 9.32031C8.10237 8.98316 7.80472 8.45659 7.99221 7.87207C8.17869 7.29091 8.72328 7.03347 9.18948 6.95117L9.19534 6.9502L10.211 6.7793L10.7793 5.64453C10.9801 5.21742 11.3777 4.75 12.0039 4.75ZM11.5313 7.49512C11.4258 7.70598 11.2631 7.87027 11.1123 7.9834C10.9619 8.09621 10.7547 8.20874 10.5137 8.24902L9.63674 8.39648L10.3301 9.08984C10.5211 9.28082 10.6247 9.51796 10.6768 9.71094C10.7294 9.90624 10.7542 10.1469 10.7041 10.3848C10.703 10.3899 10.7014 10.3952 10.7002 10.4004L10.5147 11.1914L11.3086 10.7236V10.7246C11.5425 10.5847 11.8026 10.5372 12.0196 10.5371C12.2363 10.5371 12.4966 10.5849 12.7305 10.7246L12.7315 10.7236L13.5235 11.1914L13.3399 10.4004V10.3994C13.2794 10.1463 13.3057 9.89666 13.3623 9.69727C13.4198 9.49507 13.5295 9.27034 13.71 9.08984L14.4024 8.39648L13.5254 8.25V8.24902C13.2851 8.20948 13.0771 8.10125 12.9229 7.9873C12.7679 7.87275 12.6048 7.70668 12.499 7.49512L12.0147 6.52734L11.5313 7.49512Z" fill="white"/>
</svg>
