<svg width="22" height="22" viewBox="0 0 22 22" fill="none" xmlns="http://www.w3.org/2000/svg">
<path d="M15 7.75C15 6.82134 14.7795 5.9467 14.3809 5.1582L14.376 5.14844C13.3372 3.01772 10.9961 1.5 8.25 1.5C4.47421 1.5 1.5 4.34251 1.5 7.75C1.5 9.64502 2.41418 11.3552 3.88086 12.5127L4.18164 12.7363L4.25879 12.7988C4.33208 12.8665 4.39109 12.9486 4.43262 13.04L5.77051 15.9854L5.80762 16.0439C5.90755 16.1637 6.09577 16.1663 6.19531 16.0479L6.74414 15.3896L7.67285 14.2705C7.81534 14.099 8.02702 14 8.25 14C12.0258 14 15 11.1575 15 7.75ZM16.5 7.75C16.5 11.9667 12.9517 15.3152 8.60938 15.4912L7.89746 16.3486L7.89648 16.3506L7.3457 17.0098L7.34473 17.0117C6.51858 17.9961 4.94813 17.7797 4.40918 16.6152L4.40723 16.6104L3.14648 13.8359C1.24525 12.4239 0 10.2339 0 7.75C0 3.41749 3.7458 0 8.25 0C11.5399 0 14.4162 1.81755 15.7197 4.48145L15.8965 4.8584C16.2859 5.75034 16.5 6.72495 16.5 7.75Z" fill="white"/>
<path d="M14.9997 7.74971C14.9996 6.82128 14.7791 5.94722 14.3805 5.15889C14.2493 4.89935 14.2804 4.58715 14.4596 4.35811C14.6389 4.12914 14.9341 4.02369 15.2175 4.08858C18.7868 4.90723 21.4997 7.93964 21.4997 11.6101C21.4997 14.0938 20.2543 16.283 18.3532 17.695L17.0925 20.4704L17.0905 20.4753C16.5571 21.6275 14.9873 21.8781 14.153 20.8689L12.8893 19.3493C10.394 19.2483 8.16463 18.1075 6.73699 16.3415C6.51243 16.0637 6.51483 15.6662 6.74285 15.3913L7.67254 14.2712L7.72918 14.2097C7.86809 14.0758 8.05462 13.9998 8.24969 13.9997C12.0255 13.9997 14.9997 11.1572 14.9997 7.74971ZM16.4997 7.74971C16.4997 11.9665 12.9515 15.315 8.60906 15.4909L8.31024 15.8513C9.43715 16.995 11.0391 17.7487 12.8405 17.8483L13.2497 17.8601L13.3327 17.8649C13.5245 17.8862 13.7021 17.9806 13.8268 18.1306L15.3063 19.9108L15.3083 19.9128C15.4142 20.0412 15.6426 20.0318 15.7292 19.8454L17.0671 16.9001L17.1139 16.8122C17.1668 16.7277 17.2369 16.6541 17.319 16.5964C18.96 15.4421 19.9997 13.6312 19.9997 11.6101C19.9997 9.20287 18.5095 7.07529 16.2946 6.0378C16.4288 6.58772 16.4997 7.16033 16.4997 7.74971Z" fill="white"/>
</svg>
