<svg width="24" height="24" viewBox="0 0 24 24" fill="none" xmlns="http://www.w3.org/2000/svg">
<path d="M17.2699 8.91C17.2699 6.02422 14.9057 3.66 12.0199 3.66C9.12418 3.66004 6.76994 6.01424 6.76994 8.91V11.7997C6.76994 12.195 6.6883 12.6513 6.57365 13.0643C6.45894 13.4775 6.29444 13.908 6.09416 14.244L6.0922 14.2469L4.94279 16.1571C4.69404 16.5706 4.6799 16.9556 4.78947 17.2518C4.89949 17.5489 5.16299 17.8342 5.62052 17.9891H5.61955C9.77478 19.377 14.2574 19.3774 18.4125 17.9891L18.4145 17.9881C19.1653 17.7399 19.5012 16.8465 19.0873 16.1561L17.9379 14.2469L17.9301 14.2352C17.738 13.9023 17.5773 13.4746 17.4643 13.0623C17.3514 12.6509 17.2699 12.1948 17.2699 11.7997V8.91ZM18.7699 11.7997C18.7699 12.0145 18.8184 12.3298 18.9106 12.6659C19.0025 13.0009 19.122 13.2982 19.2299 13.4852H19.2289L20.3725 15.3827L20.3735 15.3846C21.2784 16.8935 20.5545 18.8573 18.8871 19.41L18.8881 19.411C14.4238 20.9025 9.60626 20.9025 5.14201 19.411L5.13908 19.41C4.2971 19.1249 3.6657 18.5358 3.38322 17.7733C3.10044 17.0096 3.19665 16.1498 3.65763 15.3836V15.3827L4.80705 13.4735C4.91638 13.2893 5.03595 12.9957 5.12834 12.6629C5.22116 12.3285 5.26994 12.0143 5.26994 11.7997V8.91C5.26994 5.18581 8.29576 2.16004 12.0199 2.16C15.7342 2.16 18.7699 5.19579 18.7699 8.91V11.7997Z" fill="white"/>
<path d="M12.0196 1.19C13.1768 1.19 14.169 1.90705 14.5684 2.92633C14.6727 3.19238 14.6166 3.49459 14.4239 3.70563C14.2313 3.91659 13.9356 3.99998 13.6612 3.92047C13.3838 3.83993 13.1032 3.77908 12.8194 3.74469H12.8175C11.9531 3.63664 11.1354 3.70057 10.379 3.92047C10.1046 4.00005 9.80894 3.91657 9.61629 3.70563C9.42357 3.49458 9.36748 3.19243 9.47176 2.92633C9.87117 1.90718 10.8627 1.19016 12.0196 1.19Z" fill="white"/>
<path d="M9.77 19.06C9.77 19.6725 10.0246 20.2443 10.4302 20.6498C10.8357 21.0554 11.4075 21.31 12.02 21.31C13.2558 21.31 14.27 20.2958 14.27 19.06H15.77C15.77 21.1242 14.0842 22.81 12.02 22.81C10.9925 22.81 10.0441 22.3849 9.36961 21.7104C8.69514 21.0359 8.27 20.0875 8.27 19.06H9.77Z" fill="white"/>
</svg>
