<svg width="24" height="24" viewBox="0 0 24 24" fill="none" xmlns="http://www.w3.org/2000/svg">
<path d="M14.25 12C14.25 10.7574 13.2426 9.75 12 9.75C10.7574 9.75 9.75 10.7574 9.75 12C9.75 13.2426 10.7574 14.25 12 14.25C13.2426 14.25 14.25 13.2426 14.25 12ZM15.75 12C15.75 14.0711 14.0711 15.75 12 15.75C9.92893 15.75 8.25 14.0711 8.25 12C8.25 9.92893 9.92893 8.25 12 8.25C14.0711 8.25 15.75 9.92893 15.75 12Z" fill="white"/>
<path d="M21.2598 11.1197C21.2596 10.4867 20.7384 9.97047 20.1104 9.97028C19.0456 9.97028 18.098 9.5876 17.6201 8.75836C17.1422 7.92895 17.2862 6.91685 17.8213 5.99371C18.1335 5.45195 17.9445 4.74379 17.3975 4.43121L15.668 3.44098L15.6562 3.43512L16.04 2.78961L15.6562 3.43414C15.239 3.18622 14.6768 3.32286 14.4082 3.7652L14.2988 3.95563C13.764 4.87844 12.9577 5.50739 12.001 5.50739C11.0432 5.50727 10.2389 4.87715 9.70898 3.9527V3.95172L9.60059 3.76618V3.7652C9.33178 3.32323 8.77057 3.18618 8.35352 3.43414L8.34277 3.44098L6.6123 4.43121C6.06534 4.74377 5.87635 5.45196 6.18848 5.99371C6.72354 6.91685 6.86761 7.92895 6.38965 8.75836C5.91178 9.58743 4.96494 9.97018 3.90039 9.97028C3.26727 9.97028 2.75017 10.4915 2.75 11.1197V12.8804C2.75024 13.5086 3.26731 14.0298 3.90039 14.0298C4.96498 14.0299 5.91179 14.4126 6.38965 15.2418C6.86743 16.0709 6.72304 17.0816 6.18848 18.0045C5.89497 18.5124 6.0432 19.1678 6.51367 19.5054L6.6123 19.5689L8.34277 20.5591L8.35352 20.565L8.43359 20.608C8.84248 20.7967 9.35528 20.6467 9.60547 20.2261L9.71094 20.0445V20.0435C10.2458 19.1208 11.0521 18.4927 12.0088 18.4927C12.9657 18.4928 13.7688 19.1214 14.2988 20.0445L14.4043 20.2261C14.6712 20.6747 15.2366 20.8147 15.6562 20.565L15.667 20.5591H15.668L17.3975 19.5689L17.4961 19.5054C17.9661 19.1692 18.1152 18.522 17.8184 18.0025V18.0015C17.2855 17.0796 17.143 16.0698 17.6201 15.2418C18.098 14.4125 19.0456 14.0298 20.1104 14.0298C20.7433 14.0297 21.2595 13.5085 21.2598 12.8804V11.1197ZM22.7598 12.8804C22.7595 14.3318 21.5768 15.5297 20.1104 15.5298C19.3651 15.5298 19.037 15.7876 18.9199 15.9908C18.8175 16.1685 18.7598 16.5069 18.998 17.022L19.1191 17.2535L19.1211 17.2584C19.8441 18.524 19.4159 20.1439 18.1426 20.8716L18.1416 20.8707L16.4121 21.8609L16.4111 21.8599C15.2526 22.5407 13.7862 22.1214 13.1152 20.9937L13.1113 20.9859L13.001 20.7955L12.999 20.7925C12.6291 20.1475 12.2434 19.9928 12.0088 19.9927C11.773 19.9927 11.3839 20.1493 11.0088 20.7964L11.0078 20.7955L10.8994 20.9859L10.8945 20.9937C10.2234 22.1216 8.7563 22.5414 7.59766 21.8599V21.8609L5.86816 20.8707V20.8716C4.59554 20.1444 4.16373 18.5125 4.89062 17.2545L4.8916 17.2535C5.2662 16.6069 5.20685 16.1938 5.08984 15.9908C4.97271 15.7876 4.64521 15.5299 3.90039 15.5298C2.43376 15.5298 1.25024 14.3319 1.25 12.8804V11.1197C1.25017 9.66819 2.43372 8.47028 3.90039 8.47028C4.64509 8.47019 4.97267 8.21248 5.08984 8.00934C5.20688 7.80625 5.26654 7.39254 4.8916 6.74567H4.89062C4.20905 5.56602 4.54587 4.05787 5.63965 3.27496L5.86816 3.12848L7.58691 2.14606V2.14508C8.74716 1.45514 10.2215 1.87519 10.8945 3.00641L10.8994 3.01422L11.0088 3.20465L11.0107 3.20661C11.3806 3.85181 11.7663 4.00727 12.001 4.00739C12.2368 4.00739 12.6259 3.85087 13.001 3.20368L13.1113 3.01422L13.1152 3.00641C13.7884 1.87497 15.2635 1.45475 16.4238 2.14508L16.4229 2.14606L18.1416 3.12848H18.1426C19.3356 3.81033 19.7891 5.28698 19.2422 6.50543L19.1191 6.74567C18.7442 7.39254 18.8029 7.80625 18.9199 8.00934C19.0371 8.21253 19.3653 8.47028 20.1104 8.47028C21.5617 8.47047 22.7596 9.65317 22.7598 11.1197V12.8804Z" fill="white"/>
</svg>
